# xmcd CD database file
#
# Track frame offsets:
#	150
#	12772
#	26517
#	44642
#	57357
#	72445
#	86190
#	98422
#	110087
#	127740
#	150275
#	162470
#
# Disc length: 2350 seconds
#
# Revision: 1
# Processed by: cddbd v1.5.1PL2 Copyright (c) Steve Scherf et al.
# Submitted via: CDex 1.51
#
DISCID=94092c0c
DTITLE=Juice Newton - American Girl
DYEAR=1999
DGENRE=Pop
TTITLE0=Ask Lucinda
TTITLE1=Listen to the Radio
TTITLE2=Love Hurts
TTITLE3=They Never Made It to Memphis
TTITLE4=Keepin' Me Alive
TTITLE5=I've been Mistreated
TTITLE6=Crazy Little Thing Called Love
TTITLE7=Nightime without You
TTITLE8=The Trouble with Angels
TTITLE9=Red Blooded American Girl
TTITLE10=There Goes My Love
TTITLE11=You Can't Say You Don't Love Me Anymore
EXTD=YEAR: 1999
EXTT0=
EXTT1=
EXTT2=
EXTT3=
EXTT4=
EXTT5=
EXTT6=
EXTT7=
EXTT8=
EXTT9=
EXTT10=
EXTT11=
PLAYORDER=
